<?xml version="1.0" standalone="no"?>
<!DOCTYPE svg PUBLIC "-//W3C//DTD SVG 20010904//EN"
 "http://www.w3.org/TR/2001/REC-SVG-20010904/DTD/svg10.dtd">
<svg version="1.0" xmlns="http://www.w3.org/2000/svg"
 width="700.000000pt" height="700.000000pt" viewBox="0 0 700.000000 700.000000"
 preserveAspectRatio="xMidYMid meet">
<metadata>
Created by potrace 1.11, written by Peter Selinger 2001-2013
</metadata>
<g transform="translate(0.000000,700.000000) scale(0.100000,-0.100000)"
fill="#000000" stroke="none">
<path d="M2035 6612 c-106 -7 -240 -52 -323 -109 -167 -114 -304 -350 -337
-578 -3 -22 -8 -47 -11 -55 -24 -69 -23 -503 1 -656 3 -16 7 -42 10 -59 2 -16
7 -48 10 -70 10 -68 45 -246 66 -329 10 -44 18 -81 16 -83 -2 -2 -66 -23 -143
-47 -245 -77 -442 -158 -624 -254 -102 -54 -290 -177 -345 -227 -256 -229
-358 -421 -351 -660 6 -191 78 -352 235 -518 221 -234 651 -465 1123 -602 51
-15 96 -30 100 -34 4 -4 3 -22 -2 -41 -9 -33 -53 -240 -64 -305 -3 -16 -8 -39
-10 -51 -2 -12 -7 -43 -10 -70 -4 -27 -9 -65 -11 -84 -19 -136 -25 -412 -12
-555 16 -181 73 -371 149 -499 55 -95 174 -211 265 -259 128 -68 311 -96 463
-72 128 20 336 91 455 156 28 15 66 35 85 46 88 47 367 238 400 273 3 3 43 37
90 77 91 76 130 111 197 175 l41 41 115 -105 c531 -485 1023 -718 1400 -664
132 19 265 85 360 179 91 91 119 129 163 227 14 30 29 64 34 75 11 23 56 194
65 245 24 152 25 508 1 660 -2 14 -7 46 -10 71 -7 46 -11 74 -21 127 -3 15 -8
43 -11 62 -3 19 -9 51 -14 70 -5 19 -11 49 -14 65 -3 17 -12 56 -21 88 -8 32
-13 62 -10 66 2 5 33 16 67 26 77 21 288 92 383 129 199 78 510 251 640 356
75 61 224 224 261 286 86 145 115 252 109 404 -9 259 -163 490 -470 704 -227
159 -528 295 -908 411 -76 23 -87 29 -82 46 10 36 14 54 19 79 3 14 16 79 30
145 13 66 27 140 30 165 3 25 8 59 11 75 3 17 7 44 10 60 18 112 25 421 12
561 -7 83 -39 239 -62 309 -114 335 -350 523 -664 527 -327 5 -702 -167 -1141
-522 -97 -79 -109 -90 -218 -192 l-63 -59 -66 63 c-214 205 -469 396 -690 516
-258 140 -505 208 -708 194z m240 -312 c242 -62 528 -232 830 -494 92 -80 185
-168 185 -175 0 -3 -15 -22 -33 -42 -135 -148 -346 -408 -481 -591 -43 -60
-84 -108 -90 -109 -6 0 -18 -2 -26 -4 -8 -1 -46 -5 -85 -9 -121 -11 -167 -17
-325 -42 -85 -14 -171 -27 -190 -30 -19 -3 -95 -18 -168 -33 -73 -15 -135 -25
-137 -21 -2 3 -15 55 -29 116 -143 626 -115 1117 78 1331 42 47 121 98 168
109 102 25 190 23 303 -6z m2737 10 c228 -61 350 -312 352 -720 0 -106 -9
-264 -19 -335 -26 -178 -77 -443 -95 -490 -9 -23 -10 -23 -62 -10 -29 8 -66
16 -83 19 -16 2 -82 14 -145 25 -63 12 -147 26 -187 32 -39 5 -80 11 -90 13
-10 2 -46 7 -78 11 -33 4 -67 9 -76 10 -9 2 -52 6 -95 10 -43 4 -86 9 -94 11
-8 1 -20 3 -27 3 -6 1 -37 37 -70 82 -125 173 -366 471 -505 624 -16 16 -28
33 -28 36 0 9 113 114 220 204 437 369 831 541 1082 475z m-1436 -973 c85 -98
229 -270 264 -317 14 -18 37 -49 53 -68 15 -19 27 -36 27 -37 0 -2 -19 -1 -42
2 -53 6 -711 6 -755 0 -18 -2 -33 0 -33 5 0 9 83 122 106 143 5 6 36 42 67 80
31 39 69 84 84 102 15 18 55 64 88 102 33 38 62 70 65 70 3 0 37 -37 76 -82z
m209 -712 c132 -4 251 -8 265 -10 14 -1 40 -3 58 -4 31 -1 39 -10 136 -158 94
-144 221 -352 291 -478 61 -109 178 -332 211 -401 l35 -74 -75 -150 c-135
-268 -302 -557 -473 -817 -92 -141 -94 -143 -131 -143 -20 0 -77 -4 -127 -8
-117 -9 -798 -9 -940 0 -60 4 -124 7 -142 8 -30 0 -38 9 -126 143 -88 134
-210 332 -272 442 -79 142 -144 264 -207 388 l-70 139 66 131 c161 321 446
806 556 944 30 37 46 39 365 49 110 4 201 7 202 8 2 1 43 0 378 -9z m-1332
-102 c-15 -27 -30 -50 -33 -53 -7 -6 -156 -255 -200 -335 -19 -33 -51 -91 -72
-130 -22 -38 -48 -90 -60 -114 -11 -24 -23 -39 -28 -35 -20 23 -220 565 -220
598 0 7 8 12 18 13 9 0 51 8 92 17 41 9 89 19 105 22 17 3 104 18 195 33 91
16 180 29 198 30 l33 1 -28 -47z m2202 32 c17 -3 44 -7 60 -10 17 -2 48 -7 70
-11 53 -8 335 -63 358 -70 9 -3 17 -9 17 -14 0 -12 -127 -374 -145 -415 -8
-16 -26 -61 -41 -100 -14 -38 -29 -73 -33 -77 -6 -7 -36 41 -79 127 -13 25
-77 139 -192 340 -10 17 -44 73 -77 125 -32 52 -63 101 -67 109 -8 13 28 12
129 -4z m-3073 -261 c59 -184 183 -506 257 -669 20 -44 41 -91 47 -104 8 -19
3 -37 -27 -100 -55 -115 -189 -455 -254 -642 l-57 -166 -46 13 c-82 25 -345
116 -387 134 -22 9 -60 26 -85 36 -92 37 -278 138 -375 202 -55 37 -138 105
-185 152 -128 128 -183 246 -174 375 11 165 108 295 359 483 6 4 44 27 85 52
173 102 415 207 635 275 66 20 129 41 140 45 11 5 24 7 29 6 5 -1 22 -42 38
-92z m4013 51 c154 -47 371 -133 506 -200 542 -270 726 -583 522 -887 -52 -79
-175 -191 -293 -269 -107 -72 -304 -173 -445 -229 -80 -32 -428 -150 -432
-146 -1 1 -31 85 -66 186 -70 201 -159 429 -231 588 -25 56 -46 108 -46 116 0
7 21 58 46 112 83 179 197 479 289 761 2 7 10 11 17 8 7 -2 67 -20 133 -40z
m-3419 -1398 c19 -32 34 -60 34 -62 0 -4 156 -264 252 -422 l19 -32 -38 5
c-21 2 -49 6 -63 9 -14 2 -52 7 -85 11 -33 3 -62 8 -65 9 -3 2 -26 6 -50 10
-74 10 -331 63 -337 69 -9 9 66 227 159 464 l60 154 40 -79 c23 -43 56 -104
74 -136z m2827 48 c54 -135 157 -429 157 -446 0 -4 -12 -10 -27 -13 -57 -13
-79 -17 -103 -22 -14 -2 -59 -11 -100 -19 -41 -9 -89 -17 -105 -20 -17 -2 -90
-13 -164 -24 -74 -11 -137 -19 -139 -17 -2 3 5 17 16 33 10 15 30 46 44 68 13
22 41 66 61 97 20 32 37 60 37 63 0 2 16 29 35 59 19 30 35 57 35 59 0 2 23
44 51 93 28 48 69 124 91 167 22 44 43 76 48 71 4 -5 33 -72 63 -149z m-3178
-749 c33 -8 74 -16 90 -19 17 -3 41 -8 55 -11 32 -7 53 -11 240 -40 179 -28
252 -38 385 -51 39 -4 77 -8 85 -10 8 -1 42 -37 74 -81 76 -101 278 -361 308
-395 13 -15 34 -40 48 -56 29 -35 149 -170 168 -189 6 -7 12 -16 12 -21 0 -14
-179 -174 -347 -310 -94 -75 -307 -210 -418 -263 -191 -93 -266 -113 -415
-114 -119 -1 -128 1 -185 29 -238 116 -332 470 -271 1020 17 150 92 525 105
525 3 0 33 -7 66 -14z m3454 -133 c17 -82 34 -159 36 -173 3 -14 7 -36 9 -50
3 -14 8 -49 11 -79 4 -30 8 -62 10 -72 17 -85 24 -364 13 -472 -11 -110 -23
-175 -45 -242 -47 -148 -121 -249 -223 -303 -114 -62 -289 -56 -479 15 -70 26
-246 112 -289 141 -15 11 -47 32 -72 48 -132 85 -328 242 -490 392 l-55 51 20
25 c11 13 77 90 147 171 122 141 235 283 370 465 l63 85 70 7 c144 14 224 24
390 49 182 28 182 28 260 44 39 8 84 17 100 20 17 3 46 9 65 14 19 5 40 9 46
10 7 1 25 -61 43 -146z m-1794 -33 c143 0 299 1 348 3 l87 4 -27 -36 c-32 -42
-194 -244 -202 -251 -3 -3 -31 -34 -61 -70 -30 -36 -72 -83 -92 -105 l-38 -40
-38 40 c-100 109 -274 318 -355 426 l-27 36 72 -3 c40 -2 190 -4 333 -4z"/>
<path d="M3425 4119 c-197 -23 -382 -151 -474 -328 -200 -385 23 -831 453
-906 70 -12 90 -12 191 -1 117 13 252 83 349 181 170 170 224 428 139 654
-101 268 -372 433 -658 400z"/>
</g>
</svg>
